<?xml version="1.0" encoding="utf-8"?>
<!-- Generator: Adobe Illustrator 27.2.0, SVG Export Plug-In . SVG Version: 6.00 Build 0)  -->
<svg version="1.1"
	 id="svg13" xmlns:svg="http://www.w3.org/2000/svg" xmlns:inkscape="http://www.inkscape.org/namespaces/inkscape" xmlns:sodipodi="http://sodipodi.sourceforge.net/DTD/sodipodi-0.dtd"
	 xmlns="http://www.w3.org/2000/svg" xmlns:xlink="http://www.w3.org/1999/xlink" x="0px" y="0px" viewBox="0 0 435.3 108.4"
	 style="enable-background:new 0 0 435.3 108.4;" xml:space="preserve">
<style type="text/css">
	.st0{fill-rule:evenodd;clip-rule:evenodd;}
	.st1{fill-rule:evenodd;clip-rule:evenodd;fill:none;stroke:#000000;stroke-width:7.200000e-02;stroke-miterlimit:10;}
</style>
<g>
	
		<sodipodi:namedview  bordercolor="#000000" borderopacity="0.25" id="namedview15" inkscape:deskcolor="#d1d1d1" inkscape:document-units="pt" inkscape:pagecheckerboard="0" inkscape:pageopacity="0.0" inkscape:showpageshadow="2" pagecolor="#ffffff">
		</sodipodi:namedview>
	<g id="Layer1000">
		<path id="path2" class="st0" d="M76.1,31.5H89v16.3l17.4-16.3h19.1l-18.1,16.9l18.1,16.3h-19.1L89,48.9v15.8H76.1V48.8L58.6,64.7
			H39.5l18.1-16.3L39.5,31.5h19.1l17.5,16.4V31.5z"/>
		<path id="path4" class="st0" d="M39.6,70.9h5.7v7.2l7.7-7.2h8.4l-8,7.4l8,7.2H53l-7.7-7v7h-5.7V70.9z"/>
		<path id="path6" class="st0" d="M67.9,74.7h7.1c0.8,0,1.4,0.6,1.4,1.4v4c0,0.8-0.6,1.4-1.4,1.4h-7.1c-0.8,0-1.4-0.6-1.4-1.4v-4
			C66.5,75.4,67.2,74.7,67.9,74.7z M63.9,70.9h15.3c1.7,0,3,1.4,3,3v8.5c0,1.7-1.4,3-3,3H63.9c-1.7,0-3-1.4-3-3v-8.5
			C60.9,72.3,62.3,70.9,63.9,70.9z"/>
		<path id="path8" class="st0" d="M89.2,74.5h9.5c0.5,0,0.9,0.4,0.9,0.9v1.2c0,0.5-0.4,0.9-0.9,0.9H90l-0.9,0v-2.1L89.2,74.5z
			 M83.7,70.9l18.5,0c1.6,0,3,1.3,3,3V78c0,1.6-1.3,3-3,3h-1.3l0,0.3l4.3,4.2l-8.1,0L92.5,81h-3.4v4.5l-5.4,0V73.9L83.7,70.9z"/>
		<path id="path10" class="st0" d="M106.7,70.9h5.7h13.1v3.6h-13.1v1.7h11.8v3.6h-11.8v2h13.1v3.6h-13.1h-5.7v-3.6v-2v-3.6v-1.7
			V70.9z"/>
	</g>
</g>
<sodipodi:namedview  bordercolor="#000000" borderopacity="0.25" id="namedview15" inkscape:deskcolor="#d1d1d1" inkscape:document-units="pt" inkscape:pagecheckerboard="0" inkscape:pageopacity="0.0" inkscape:showpageshadow="2" pagecolor="#ffffff">
	</sodipodi:namedview>
<g>
	<path id="path4_00000169543543449836608160000000226131095510847623_" class="st0" d="M165.6,35.9h16v20.2l21.6-20.2h23.6
		l-22.4,20.8l22.4,20.2h-23.6l-21.6-19.5v19.5h-16V35.9z"/>
	<path id="path6_00000002368757447503984260000001132439963988110769_" class="st0" d="M245,46.7h20c2.2,0,3.9,1.8,3.9,3.9v11.1
		c0,2.2-1.8,3.9-3.9,3.9h-20c-2.2,0-3.9-1.8-3.9-3.9V50.6C241,48.5,242.8,46.7,245,46.7z M233.7,35.9h43c4.7,0,8.5,3.8,8.5,8.5v23.9
		c0,4.7-3.8,8.5-8.5,8.5h-43c-4.7,0-8.5-3.8-8.5-8.5V44.4C225.2,39.7,229,35.9,233.7,35.9z"/>
	<path id="path8_00000026155927994447687470000002651144007241306012_" class="st0" d="M304.5,46.1h26.7c1.3,0,2.4,1.1,2.4,2.4v3.4
		c0,1.3-1.1,2.4-2.4,2.4h-24.3l-2.4,0v-5.8V46.1z M289.1,35.9l51.8,0c4.6,0,8.4,3.8,8.4,8.4v11.6c0,4.6-3.8,8.4-8.4,8.4h-3.7l0,0.8
		l12.1,11.9l-22.8,0l-12.6-12.6h-9.6v12.6l-15.3,0V44.3L289.1,35.9z"/>
	<path id="path10_00000124880533718404208900000016389666022109361553_" class="st0" d="M353.6,35.9h16.1h36.8v10.2h-36.8v4.8h33.1
		v10.2h-33.1v5.5h36.8v10.2h-36.8h-16.1V66.6v-5.5V50.9v-4.8V35.9z"/>
</g>
<rect x="33.1" y="24.5" class="st1" width="100.7" height="66.3"/>
<rect x="158" y="26" class="st1" width="258.6" height="64.8"/>
</svg>
