<?xml version="1.0" encoding="UTF-8"?>
<svg id="Layer_1" data-name="Layer 1" xmlns="http://www.w3.org/2000/svg" viewBox="0 0 153.28 331.62">
  <defs>
    <style>
      .cls-1 {
        fill: none;
        stroke: red;
        stroke-miterlimit: 10;
        stroke-width: .07px;
      }
    </style>
  </defs>
  <g>
    <path d="m33.55,271.53c-2.8-.08-5.77-.87-8.14-3.2-2.02-1.98-2.92-4.33-2.2-7.17,1.63-6.44,3.24-12.89,4.89-19.32.44-1.73,1.19-2.3,2.95-2.31,3.21-.02,6.43-.03,9.64,0,.89,0,1.79.1,2.65.3,4.78,1.07,7.57,5.08,6.55,9.88-.97,4.57-2.14,9.12-3.54,13.58-1.63,5.17-6.51,8.25-12.79,8.24Zm3.67-27.1h0c-1.29,0-2.59.02-3.88-.01-.62-.01-.94.17-1.11.84-1.37,5.49-2.82,10.96-4.17,16.46-.49,1.98.02,2.92,1.82,3.95,1.57.9,3.29,1.07,5.05.94,3.53-.25,6.07-2.19,7.04-5.57,1.08-3.81,2.08-7.65,2.99-11.51.76-3.21-.67-4.97-3.99-5.09-1.25-.04-2.5,0-3.75,0Z"/>
    <path d="m37.12,86.46c1.62-2.61,3.25-5.21,4.87-7.82,2.53-4.1,5.05-8.2,7.59-12.3.75-1.21,2.01-1.62,3.21-1.08,1.4.63,1.8,2.12.9,3.61-2.01,3.32-4.02,6.64-6.09,9.92-5.29,8.42-10.6,16.83-15.92,25.24-1.23,1.94-2.74,3.64-4.68,4.89-1.61,1.04-3.35,1.66-5.3,1.56-1.65-.08-2.78-1.07-2.79-2.47-.01-1.46,1.03-2.42,2.75-2.4,2.04.02,3.5-1.08,4.63-2.55,1.47-1.9,2.63-4.04,4.13-5.92,1.82-2.28,2.17-4.69,1.85-7.56-.82-7.18-1.32-14.39-1.94-21.58-.17-1.94.88-3.07,2.69-2.94,1.32.09,2.02.73,2.16,2.09.29,2.97.53,5.95.79,8.93.15,1.73.31,3.46.46,5.2.15,1.68.29,3.36.43,5.04.09.04.18.08.26.12Z"/>
    <path d="m38.19,118.69c1.87,0,3.75-.01,5.62,0,4.34.04,7.24,2.71,7.27,7.04.01,2.24-.33,4.55-.89,6.73-1.36,5.27-2.93,10.48-4.43,15.71-.07.26-.15.52-.25.76-.53,1.35-1.75,2-2.97,1.59-1.26-.41-1.92-1.63-1.55-3,.52-1.94,1.14-3.85,1.66-5.79,1.08-4.01,2.18-8.01,3.17-12.04.3-1.24.41-2.56.38-3.84-.05-1.74-.7-2.26-2.46-2.27-2.95-.01-5.89.04-8.84-.03-1.03-.03-1.47.29-1.74,1.29-1.84,6.94-3.74,13.87-5.62,20.8-.29,1.08-.55,2.16-.88,3.23-.42,1.35-1.62,2.02-2.91,1.69-1.27-.32-2.06-1.51-1.72-2.89.9-3.64,1.87-7.26,2.84-10.88,1.4-5.21,2.83-10.42,4.24-15.63.57-2.09,1.08-2.49,3.3-2.5,1.92,0,3.84,0,5.76,0Z"/>
    <path d="m43.22,24.32c2.46,0,5.09.45,7.55,1.61.76.36,1.5.79,2.18,1.29,1.35.99,1.58,2.44.65,3.59-.89,1.11-2.32,1.27-3.56.23-1.61-1.34-3.46-2.09-5.49-2.23-1.58-.11-3.22-.07-4.78.21-3.32.58-3.87,4.69-1.86,6.32,1.52,1.23,3.08,2.42,4.63,3.63,1.75,1.37,3.64,2.61,5.23,4.15,4.26,4.1,3.12,10.22-2.29,12.59-1.25.55-2.64.92-3.99,1.04-4.42.39-8.73-.29-12.85-1.95-1.5-.6-2.07-1.96-1.51-3.23.56-1.26,1.97-1.78,3.4-1.24.04.02.08.04.12.05,2.22.66,4.41,1.4,6.66,1.95,1.76.43,3.56.29,5.26-.4.61-.25,1.22-.57,1.72-1,1.4-1.18,1.54-3.04.3-4.39-.69-.74-1.54-1.35-2.37-1.95-1.95-1.41-3.98-2.72-5.9-4.18-.95-.72-1.82-1.59-2.58-2.51-2.46-2.97-2.5-6.52-.13-9.59,2.36-3.06,5.64-4.05,9.59-4Z"/>
    <path d="m38.61,279.73c3.31,0,6.14.54,8.77,1.9.59.31,1.16.67,1.69,1.08,1.21.94,1.41,2.43.53,3.53-.84,1.05-2.33,1.23-3.47.29-3.01-2.46-6.46-2.84-10.11-2.18-2.28.42-3.35,1.79-3.16,4.07.06.77.48,1.66,1.02,2.21,1.05,1.08,2.29,1.98,3.49,2.9,1.91,1.46,3.93,2.79,5.77,4.34,2.01,1.69,3.4,3.79,3.2,6.6-.24,3.49-2.59,6.14-6.37,7.21-3.09.88-6.21.74-9.29.11-2.17-.44-4.32-1.08-6.41-1.82-1.17-.42-1.58-1.69-1.21-2.78.38-1.13,1.38-1.79,2.59-1.67.31.03.61.13.91.22,2.22.66,4.41,1.4,6.65,1.97,1.8.46,3.64.34,5.39-.38.61-.25,1.22-.58,1.72-1.01,1.35-1.16,1.54-2.96.36-4.28-.73-.82-1.66-1.48-2.56-2.13-1.56-1.12-3.18-2.15-4.73-3.27-.87-.63-1.69-1.32-2.46-2.06-4.74-4.5-3.63-11.03,2.33-13.78,1.82-.84,3.74-1.17,5.37-1.09Z"/>
    <path d="m39.4,158.86c1.74,0,3.48-.02,5.22,0,1.76.02,2.73.9,2.73,2.43,0,1.51-1,2.44-2.72,2.46-2.63.02-5.27.03-7.9-.01-.83-.01-1.28.17-1.52,1.06-1.38,5.13-2.86,10.23-4.23,15.36-.3,1.15-.4,2.38-.37,3.57.06,1.96.92,2.72,2.86,2.76,2.05.03,4.11.02,6.16.04.44,0,.9,0,1.33.11,1.08.27,1.84,1.34,1.78,2.39-.06,1.02-.84,2.12-1.89,2.14-3.25.06-6.54.27-9.73-.16-3.25-.44-5.33-3.47-5.41-7.21-.03-1.72.18-3.49.62-5.15,1.57-5.95,3.28-11.87,4.95-17.8.41-1.44,1.09-1.95,2.63-1.98,1.83-.03,3.66,0,5.49,0Z"/>
    <path d="m38.18,199.46c1.2,0,2.41,0,3.61,0,1.95,0,3.55.77,4.79,2.26,1.32,1.59,2.05,3.44,2.31,5.47.19,1.47-.56,2.55-1.86,2.81-1.26.25-2.43-.49-2.86-1.84-.19-.59-.3-1.21-.48-1.81-.33-1.15-1.09-1.86-2.3-1.92-1.69-.07-3.39-.05-5.08-.08-.79-.01-.77.63-.9,1.11-1.11,4.04-2.19,8.09-3.29,12.13-1.06,3.92-2.11,7.83-3.19,11.74-.36,1.31-1.06,1.89-2.21,1.97-1.76.12-2.96-1.39-2.48-3.2.97-3.66,1.98-7.31,2.97-10.97,1.36-5.04,2.71-10.07,4.07-15.11.56-2.09,1.22-2.58,3.41-2.59,1.16,0,2.32,0,3.48,0Z"/>
  </g>
  <rect class="cls-1" x="6.69" y="8.87" width="63.61" height="316.05"/>
  <g>
    <path d="m106.9,271.53c-2.8-.08-5.77-.87-8.14-3.2-2.02-1.98-2.92-4.33-2.2-7.17,1.63-6.44,3.24-12.89,4.89-19.32.44-1.73,1.19-2.3,2.95-2.31,3.21-.02,6.43-.03,9.64,0,.89,0,1.79.1,2.65.3,4.78,1.07,7.57,5.08,6.55,9.88-.97,4.57-2.14,9.12-3.54,13.58-1.63,5.17-6.51,8.25-12.79,8.24Zm3.67-27.1h0c-1.29,0-2.59.02-3.88-.01-.62-.01-.94.17-1.11.84-1.37,5.49-2.82,10.96-4.17,16.46-.49,1.98.02,2.92,1.82,3.95,1.57.9,3.29,1.07,5.05.94,3.53-.25,6.07-2.19,7.04-5.57,1.08-3.81,2.08-7.65,2.99-11.51.76-3.21-.67-4.97-3.99-5.09-1.25-.04-2.5,0-3.75,0Z"/>
    <path d="m110.47,86.46c1.62-2.61,3.25-5.21,4.87-7.82,2.53-4.1,5.05-8.2,7.59-12.3.75-1.21,2.01-1.62,3.21-1.08,1.4.63,1.8,2.12.9,3.61-2.01,3.32-4.02,6.64-6.09,9.92-5.29,8.42-10.6,16.83-15.92,25.24-1.23,1.94-2.74,3.64-4.68,4.89-1.61,1.04-3.35,1.66-5.3,1.56-1.65-.08-2.78-1.07-2.79-2.47-.01-1.46,1.03-2.42,2.75-2.4,2.04.02,3.5-1.08,4.63-2.55,1.47-1.9,2.63-4.04,4.13-5.92,1.82-2.28,2.17-4.69,1.85-7.56-.82-7.18-1.32-14.39-1.94-21.58-.17-1.94.88-3.07,2.69-2.94,1.32.09,2.02.73,2.16,2.09.29,2.97.53,5.95.79,8.93.15,1.73.31,3.46.46,5.2.15,1.68.29,3.36.43,5.04.09.04.18.08.26.12Z"/>
    <path d="m111.54,118.69c1.87,0,3.75-.01,5.62,0,4.34.04,7.24,2.71,7.27,7.04.01,2.24-.33,4.55-.89,6.73-1.36,5.27-2.93,10.48-4.43,15.71-.07.26-.15.52-.25.76-.53,1.35-1.75,2-2.97,1.59-1.26-.41-1.92-1.63-1.55-3,.52-1.94,1.14-3.85,1.66-5.79,1.08-4.01,2.18-8.01,3.17-12.04.3-1.24.41-2.56.38-3.84-.05-1.74-.7-2.26-2.46-2.27-2.95-.01-5.89.04-8.84-.03-1.03-.03-1.47.29-1.74,1.29-1.84,6.94-3.74,13.87-5.62,20.8-.29,1.08-.55,2.16-.88,3.23-.42,1.35-1.62,2.02-2.91,1.69-1.27-.32-2.06-1.51-1.72-2.89.9-3.64,1.87-7.26,2.84-10.88,1.4-5.21,2.83-10.42,4.24-15.63.57-2.09,1.08-2.49,3.3-2.5,1.92,0,3.84,0,5.76,0Z"/>
    <path d="m116.57,24.32c2.46,0,5.09.45,7.55,1.61.76.36,1.5.79,2.18,1.29,1.35.99,1.58,2.44.65,3.59-.89,1.11-2.32,1.27-3.56.23-1.61-1.34-3.46-2.09-5.49-2.23-1.58-.11-3.22-.07-4.78.21-3.32.58-3.87,4.69-1.86,6.32,1.52,1.23,3.08,2.42,4.63,3.63,1.75,1.37,3.64,2.61,5.23,4.15,4.26,4.1,3.12,10.22-2.29,12.59-1.25.55-2.64.92-3.99,1.04-4.42.39-8.73-.29-12.85-1.95-1.5-.6-2.07-1.96-1.51-3.23.56-1.26,1.97-1.78,3.4-1.24.04.02.08.04.12.05,2.22.66,4.41,1.4,6.66,1.95,1.76.43,3.56.29,5.26-.4.61-.25,1.22-.57,1.72-1,1.4-1.18,1.54-3.04.3-4.39-.69-.74-1.54-1.35-2.37-1.95-1.95-1.41-3.98-2.72-5.9-4.18-.95-.72-1.82-1.59-2.58-2.51-2.46-2.97-2.5-6.52-.13-9.59,2.36-3.06,5.64-4.05,9.59-4Z"/>
    <path d="m111.96,279.73c3.31,0,6.14.54,8.77,1.9.59.31,1.16.67,1.69,1.08,1.21.94,1.41,2.43.53,3.53-.84,1.05-2.33,1.23-3.47.29-3.01-2.46-6.46-2.84-10.11-2.18-2.28.42-3.35,1.79-3.16,4.07.06.77.48,1.66,1.02,2.21,1.05,1.08,2.29,1.98,3.49,2.9,1.91,1.46,3.93,2.79,5.77,4.34,2.01,1.69,3.4,3.79,3.2,6.6-.24,3.49-2.59,6.14-6.37,7.21-3.09.88-6.21.74-9.29.11-2.17-.44-4.32-1.08-6.41-1.82-1.17-.42-1.58-1.69-1.21-2.78.38-1.13,1.38-1.79,2.59-1.67.31.03.61.13.91.22,2.22.66,4.41,1.4,6.65,1.97,1.8.46,3.64.34,5.39-.38.61-.25,1.22-.58,1.72-1.01,1.35-1.16,1.54-2.96.36-4.28-.73-.82-1.66-1.48-2.56-2.13-1.56-1.12-3.18-2.15-4.73-3.27-.87-.63-1.69-1.32-2.46-2.06-4.74-4.5-3.63-11.03,2.33-13.78,1.82-.84,3.74-1.17,5.37-1.09Z"/>
    <path d="m112.75,158.86c1.74,0,3.48-.02,5.22,0,1.76.02,2.73.9,2.73,2.43,0,1.51-1,2.44-2.72,2.46-2.63.02-5.27.03-7.9-.01-.83-.01-1.28.17-1.52,1.06-1.38,5.13-2.86,10.23-4.23,15.36-.3,1.15-.4,2.38-.37,3.57.06,1.96.92,2.72,2.86,2.76,2.05.03,4.11.02,6.16.04.44,0,.9,0,1.33.11,1.08.27,1.84,1.34,1.78,2.39-.06,1.02-.84,2.12-1.89,2.14-3.25.06-6.54.27-9.73-.16-3.25-.44-5.33-3.47-5.41-7.21-.03-1.72.18-3.49.62-5.15,1.57-5.95,3.28-11.87,4.95-17.8.41-1.44,1.09-1.95,2.63-1.98,1.83-.03,3.66,0,5.49,0Z"/>
    <path d="m111.53,199.46c1.2,0,2.41,0,3.61,0,1.95,0,3.55.77,4.79,2.26,1.32,1.59,2.05,3.44,2.31,5.47.19,1.47-.56,2.55-1.86,2.81-1.26.25-2.43-.49-2.86-1.84-.19-.59-.3-1.21-.48-1.81-.33-1.15-1.09-1.86-2.3-1.92-1.69-.07-3.39-.05-5.08-.08-.79-.01-.77.63-.9,1.11-1.11,4.04-2.19,8.09-3.29,12.13-1.06,3.92-2.11,7.83-3.19,11.74-.36,1.31-1.06,1.89-2.21,1.97-1.76.12-2.96-1.39-2.48-3.2.97-3.66,1.98-7.31,2.97-10.97,1.36-5.04,2.71-10.07,4.07-15.11.56-2.09,1.22-2.58,3.41-2.59,1.16,0,2.32,0,3.48,0Z"/>
  </g>
  <rect class="cls-1" x="80.04" y="8.87" width="63.61" height="316.05"/>
</svg>