<?xml version="1.0" encoding="utf-8"?>
<!-- Generator: Adobe Illustrator 27.2.0, SVG Export Plug-In . SVG Version: 6.00 Build 0)  -->
<svg version="1.1" id="Layer_1" xmlns="http://www.w3.org/2000/svg" xmlns:xlink="http://www.w3.org/1999/xlink" x="0px" y="0px"
	 viewBox="0 0 713.82 939.98" style="enable-background:new 0 0 713.82 939.98;" xml:space="preserve">
<style type="text/css">
	.st0{stroke:#FF0000;stroke-width:0.072;stroke-miterlimit:10;}
	.st1{fill:none;stroke:#FF0000;stroke-width:0.072;stroke-miterlimit:10;}
	.st2{fill:#FFFFFF;}
</style>
<g>
	<g>
		<path class="st0" d="M197.58,768.71c-2.8-0.08-5.77-0.87-8.14-3.2c-2.02-1.98-2.92-4.33-2.2-7.17c1.63-6.44,3.24-12.89,4.89-19.32
			c0.44-1.73,1.19-2.3,2.95-2.31c3.21-0.02,6.43-0.03,9.64,0.01c0.89,0.01,1.79,0.1,2.65,0.3c4.78,1.07,7.57,5.08,6.55,9.88
			c-0.97,4.57-2.14,9.12-3.54,13.58C208.74,765.64,203.87,768.72,197.58,768.71z M201.25,741.61
			C201.25,741.61,201.25,741.61,201.25,741.61c-1.29,0-2.59,0.02-3.88-0.01c-0.62-0.01-0.94,0.17-1.11,0.84
			c-1.37,5.49-2.82,10.96-4.17,16.46c-0.49,1.98,0.02,2.92,1.82,3.95c1.57,0.9,3.29,1.07,5.05,0.94c3.53-0.25,6.07-2.19,7.04-5.57
			c1.08-3.81,2.08-7.65,2.99-11.51c0.76-3.21-0.67-4.97-3.99-5.09C203.75,741.57,202.5,741.61,201.25,741.61z"/>
		<path class="st0" d="M201.15,583.64c1.62-2.61,3.25-5.21,4.87-7.82c2.53-4.1,5.05-8.2,7.59-12.3c0.75-1.21,2.01-1.62,3.21-1.08
			c1.4,0.63,1.8,2.12,0.9,3.61c-2.01,3.32-4.02,6.64-6.09,9.92c-5.29,8.42-10.6,16.83-15.92,25.24c-1.23,1.94-2.74,3.64-4.68,4.89
			c-1.61,1.04-3.35,1.66-5.3,1.56c-1.65-0.08-2.78-1.07-2.79-2.47c-0.01-1.46,1.03-2.42,2.75-2.4c2.04,0.02,3.5-1.08,4.63-2.55
			c1.47-1.9,2.63-4.04,4.13-5.92c1.82-2.28,2.17-4.69,1.85-7.56c-0.82-7.18-1.32-14.39-1.94-21.58c-0.17-1.94,0.88-3.07,2.69-2.94
			c1.32,0.09,2.02,0.73,2.16,2.09c0.29,2.97,0.53,5.95,0.79,8.93c0.15,1.73,0.31,3.46,0.46,5.2c0.15,1.68,0.29,3.36,0.43,5.04
			C200.97,583.56,201.06,583.6,201.15,583.64z"/>
		<path class="st0" d="M202.22,615.86c1.87,0,3.75-0.01,5.62,0c4.34,0.04,7.24,2.71,7.27,7.04c0.01,2.24-0.33,4.55-0.89,6.73
			c-1.36,5.27-2.93,10.48-4.43,15.71c-0.07,0.26-0.15,0.52-0.25,0.76c-0.53,1.35-1.75,2-2.97,1.59c-1.26-0.41-1.92-1.63-1.55-3
			c0.52-1.94,1.14-3.85,1.66-5.79c1.08-4.01,2.18-8.01,3.17-12.04c0.3-1.24,0.41-2.56,0.38-3.84c-0.05-1.74-0.7-2.26-2.46-2.27
			c-2.95-0.01-5.89,0.04-8.84-0.03c-1.03-0.03-1.47,0.29-1.74,1.29c-1.84,6.94-3.74,13.87-5.62,20.8c-0.29,1.08-0.55,2.16-0.88,3.23
			c-0.42,1.35-1.62,2.02-2.91,1.69c-1.27-0.32-2.06-1.51-1.72-2.89c0.9-3.64,1.87-7.26,2.84-10.88c1.4-5.21,2.83-10.42,4.24-15.63
			c0.57-2.09,1.08-2.49,3.3-2.5C198.38,615.86,200.3,615.86,202.22,615.86z"/>
		<path class="st0" d="M207.24,521.49c2.46-0.01,5.09,0.45,7.55,1.61c0.76,0.36,1.5,0.79,2.18,1.29c1.35,0.99,1.58,2.44,0.65,3.59
			c-0.89,1.11-2.32,1.27-3.56,0.23c-1.61-1.34-3.46-2.09-5.49-2.23c-1.58-0.11-3.22-0.07-4.78,0.21c-3.32,0.58-3.87,4.69-1.86,6.32
			c1.52,1.23,3.08,2.42,4.63,3.63c1.75,1.37,3.64,2.61,5.23,4.15c4.26,4.1,3.12,10.22-2.29,12.59c-1.25,0.55-2.64,0.92-3.99,1.04
			c-4.42,0.39-8.73-0.29-12.85-1.95c-1.5-0.6-2.07-1.96-1.51-3.23c0.56-1.26,1.97-1.78,3.4-1.24c0.04,0.02,0.08,0.04,0.12,0.05
			c2.22,0.66,4.41,1.4,6.66,1.95c1.76,0.43,3.56,0.29,5.26-0.4c0.61-0.25,1.22-0.57,1.72-1c1.4-1.18,1.54-3.04,0.3-4.39
			c-0.69-0.74-1.54-1.35-2.37-1.95c-1.95-1.41-3.98-2.72-5.9-4.18c-0.95-0.72-1.82-1.59-2.58-2.51c-2.46-2.97-2.5-6.52-0.13-9.59
			C200.02,522.43,203.29,521.44,207.24,521.49z"/>
		<path class="st0" d="M202.63,776.9c3.31,0,6.14,0.54,8.77,1.9c0.59,0.31,1.16,0.67,1.69,1.08c1.21,0.94,1.41,2.43,0.53,3.53
			c-0.84,1.05-2.33,1.23-3.47,0.29c-3.01-2.46-6.46-2.84-10.11-2.18c-2.28,0.42-3.35,1.79-3.16,4.07c0.06,0.77,0.48,1.66,1.02,2.21
			c1.05,1.08,2.29,1.98,3.49,2.9c1.91,1.46,3.93,2.79,5.77,4.34c2.01,1.69,3.4,3.79,3.2,6.6c-0.24,3.49-2.59,6.14-6.37,7.21
			c-3.09,0.88-6.21,0.74-9.29,0.11c-2.17-0.44-4.32-1.08-6.41-1.82c-1.17-0.42-1.58-1.69-1.21-2.78c0.38-1.13,1.38-1.79,2.59-1.67
			c0.31,0.03,0.61,0.13,0.91,0.22c2.22,0.66,4.41,1.4,6.65,1.97c1.8,0.46,3.64,0.34,5.39-0.38c0.61-0.25,1.22-0.58,1.72-1.01
			c1.35-1.16,1.54-2.96,0.36-4.28c-0.73-0.82-1.66-1.48-2.56-2.13c-1.56-1.12-3.18-2.15-4.73-3.27c-0.87-0.63-1.69-1.32-2.46-2.06
			c-4.74-4.5-3.63-11.03,2.33-13.78C199.08,777.16,201,776.82,202.63,776.9z"/>
		<path class="st0" d="M203.43,656.03c1.74,0,3.48-0.02,5.22,0c1.76,0.02,2.73,0.9,2.73,2.43c0.01,1.51-1,2.44-2.72,2.46
			c-2.63,0.02-5.27,0.03-7.9-0.01c-0.83-0.01-1.28,0.17-1.52,1.06c-1.38,5.13-2.86,10.23-4.23,15.36c-0.3,1.15-0.4,2.38-0.37,3.57
			c0.06,1.96,0.92,2.72,2.86,2.76c2.05,0.03,4.11,0.02,6.16,0.04c0.44,0,0.9,0,1.33,0.11c1.08,0.27,1.84,1.34,1.78,2.39
			c-0.06,1.02-0.84,2.12-1.89,2.14c-3.25,0.06-6.54,0.27-9.73-0.16c-3.25-0.44-5.33-3.47-5.41-7.21c-0.03-1.72,0.18-3.49,0.62-5.15
			c1.57-5.95,3.28-11.87,4.95-17.8c0.41-1.44,1.09-1.95,2.63-1.98C199.76,656.01,201.6,656.04,203.43,656.03z"/>
		<path class="st0" d="M202.21,696.64c1.2,0,2.41,0,3.61,0c1.95,0,3.55,0.77,4.79,2.26c1.32,1.59,2.05,3.44,2.31,5.47
			c0.19,1.47-0.56,2.55-1.86,2.81c-1.26,0.25-2.43-0.49-2.86-1.84c-0.19-0.59-0.3-1.21-0.48-1.81c-0.33-1.15-1.09-1.86-2.3-1.92
			c-1.69-0.07-3.39-0.05-5.08-0.08c-0.79-0.01-0.77,0.63-0.9,1.11c-1.11,4.04-2.19,8.09-3.29,12.13c-1.06,3.92-2.11,7.83-3.19,11.74
			c-0.36,1.31-1.06,1.89-2.21,1.97c-1.76,0.12-2.96-1.39-2.48-3.2c0.97-3.66,1.98-7.31,2.97-10.97c1.36-5.04,2.71-10.07,4.07-15.11
			c0.56-2.09,1.22-2.58,3.41-2.59C199.89,696.63,201.05,696.63,202.21,696.64z"/>
	</g>
	<rect x="170.71" y="506.04" class="st1" width="63.61" height="316.05"/>
</g>
<g>
	<g>
		<path class="st0" d="M293.87,768.71c-2.8-0.08-5.77-0.87-8.14-3.2c-2.02-1.98-2.92-4.33-2.2-7.17c1.63-6.44,3.24-12.89,4.89-19.32
			c0.44-1.73,1.19-2.3,2.95-2.31c3.21-0.02,6.43-0.03,9.64,0.01c0.89,0.01,1.79,0.1,2.65,0.3c4.78,1.07,7.57,5.08,6.55,9.88
			c-0.97,4.57-2.14,9.12-3.54,13.58C305.03,765.64,300.15,768.72,293.87,768.71z M297.54,741.61
			C297.54,741.61,297.54,741.61,297.54,741.61c-1.29,0-2.59,0.02-3.88-0.01c-0.62-0.01-0.94,0.17-1.11,0.84
			c-1.37,5.49-2.82,10.96-4.17,16.46c-0.49,1.98,0.02,2.92,1.82,3.95c1.57,0.9,3.29,1.07,5.05,0.94c3.53-0.25,6.07-2.19,7.04-5.57
			c1.08-3.81,2.08-7.65,2.99-11.51c0.76-3.21-0.67-4.97-3.99-5.09C300.04,741.57,298.79,741.61,297.54,741.61z"/>
		<path class="st0" d="M297.44,583.64c1.62-2.61,3.25-5.21,4.87-7.82c2.53-4.1,5.05-8.2,7.59-12.3c0.75-1.21,2.01-1.62,3.21-1.08
			c1.4,0.63,1.8,2.12,0.9,3.61c-2.01,3.32-4.02,6.64-6.09,9.92c-5.29,8.42-10.6,16.83-15.92,25.24c-1.23,1.94-2.74,3.64-4.68,4.89
			c-1.61,1.04-3.35,1.66-5.3,1.56c-1.65-0.08-2.78-1.07-2.79-2.47c-0.01-1.46,1.03-2.42,2.75-2.4c2.04,0.02,3.5-1.08,4.63-2.55
			c1.47-1.9,2.63-4.04,4.13-5.92c1.82-2.28,2.17-4.69,1.85-7.56c-0.82-7.18-1.32-14.39-1.94-21.58c-0.17-1.94,0.88-3.07,2.69-2.94
			c1.32,0.09,2.02,0.73,2.16,2.09c0.29,2.97,0.53,5.95,0.79,8.93c0.15,1.73,0.31,3.46,0.46,5.2c0.15,1.68,0.29,3.36,0.43,5.04
			C297.26,583.56,297.35,583.6,297.44,583.64z"/>
		<path class="st0" d="M298.51,615.86c1.87,0,3.75-0.01,5.62,0c4.34,0.04,7.24,2.71,7.27,7.04c0.01,2.24-0.33,4.55-0.89,6.73
			c-1.36,5.27-2.93,10.48-4.43,15.71c-0.07,0.26-0.15,0.52-0.25,0.76c-0.53,1.35-1.75,2-2.97,1.59c-1.26-0.41-1.92-1.63-1.55-3
			c0.52-1.94,1.14-3.85,1.66-5.79c1.08-4.01,2.18-8.01,3.17-12.04c0.3-1.24,0.41-2.56,0.38-3.84c-0.05-1.74-0.7-2.26-2.46-2.27
			c-2.95-0.01-5.89,0.04-8.84-0.03c-1.03-0.03-1.47,0.29-1.74,1.29c-1.84,6.94-3.74,13.87-5.62,20.8c-0.29,1.08-0.55,2.16-0.88,3.23
			c-0.42,1.35-1.62,2.02-2.91,1.69c-1.27-0.32-2.06-1.51-1.72-2.89c0.9-3.64,1.87-7.26,2.84-10.88c1.4-5.21,2.83-10.42,4.24-15.63
			c0.57-2.09,1.08-2.49,3.3-2.5C294.67,615.86,296.59,615.86,298.51,615.86z"/>
		<path class="st0" d="M303.53,521.49c2.46-0.01,5.09,0.45,7.55,1.61c0.76,0.36,1.5,0.79,2.18,1.29c1.35,0.99,1.58,2.44,0.65,3.59
			c-0.89,1.11-2.32,1.27-3.56,0.23c-1.61-1.34-3.46-2.09-5.49-2.23c-1.58-0.11-3.22-0.07-4.78,0.21c-3.32,0.58-3.87,4.69-1.86,6.32
			c1.52,1.23,3.08,2.42,4.63,3.63c1.75,1.37,3.64,2.61,5.23,4.15c4.26,4.1,3.12,10.22-2.29,12.59c-1.25,0.55-2.64,0.92-3.99,1.04
			c-4.42,0.39-8.73-0.29-12.85-1.95c-1.5-0.6-2.07-1.96-1.51-3.23c0.56-1.26,1.97-1.78,3.4-1.24c0.04,0.02,0.08,0.04,0.12,0.05
			c2.22,0.66,4.41,1.4,6.66,1.95c1.76,0.43,3.56,0.29,5.26-0.4c0.61-0.25,1.22-0.57,1.72-1c1.4-1.18,1.54-3.04,0.3-4.39
			c-0.69-0.74-1.54-1.35-2.37-1.95c-1.95-1.41-3.98-2.72-5.9-4.18c-0.95-0.72-1.82-1.59-2.58-2.51c-2.46-2.97-2.5-6.52-0.13-9.59
			C296.3,522.43,299.58,521.44,303.53,521.49z"/>
		<path class="st0" d="M298.92,776.9c3.31,0,6.14,0.54,8.77,1.9c0.59,0.31,1.16,0.67,1.69,1.08c1.21,0.94,1.41,2.43,0.53,3.53
			c-0.84,1.05-2.33,1.23-3.47,0.29c-3.01-2.46-6.46-2.84-10.11-2.18c-2.28,0.42-3.35,1.79-3.16,4.07c0.06,0.77,0.48,1.66,1.02,2.21
			c1.05,1.08,2.29,1.98,3.49,2.9c1.91,1.46,3.93,2.79,5.77,4.34c2.01,1.69,3.4,3.79,3.2,6.6c-0.24,3.49-2.59,6.14-6.37,7.21
			c-3.09,0.88-6.21,0.74-9.29,0.11c-2.17-0.44-4.32-1.08-6.41-1.82c-1.17-0.42-1.58-1.69-1.21-2.78c0.38-1.13,1.38-1.79,2.59-1.67
			c0.31,0.03,0.61,0.13,0.91,0.22c2.22,0.66,4.41,1.4,6.65,1.97c1.8,0.46,3.64,0.34,5.39-0.38c0.61-0.25,1.22-0.58,1.72-1.01
			c1.35-1.16,1.54-2.96,0.36-4.28c-0.73-0.82-1.66-1.48-2.56-2.13c-1.56-1.12-3.18-2.15-4.73-3.27c-0.87-0.63-1.69-1.32-2.46-2.06
			c-4.74-4.5-3.63-11.03,2.33-13.78C295.37,777.16,297.29,776.82,298.92,776.9z"/>
		<path class="st0" d="M299.71,656.03c1.74,0,3.48-0.02,5.22,0c1.76,0.02,2.73,0.9,2.73,2.43c0.01,1.51-1,2.44-2.72,2.46
			c-2.63,0.02-5.27,0.03-7.9-0.01c-0.83-0.01-1.28,0.17-1.52,1.06c-1.38,5.13-2.86,10.23-4.23,15.36c-0.3,1.15-0.4,2.38-0.37,3.57
			c0.06,1.96,0.92,2.72,2.86,2.76c2.05,0.03,4.11,0.02,6.16,0.04c0.44,0,0.9,0,1.33,0.11c1.08,0.27,1.84,1.34,1.78,2.39
			c-0.06,1.02-0.84,2.12-1.89,2.14c-3.25,0.06-6.54,0.27-9.73-0.16c-3.25-0.44-5.33-3.47-5.41-7.21c-0.03-1.72,0.18-3.49,0.62-5.15
			c1.57-5.95,3.28-11.87,4.95-17.8c0.41-1.44,1.09-1.95,2.63-1.98C296.05,656.01,297.88,656.04,299.71,656.03z"/>
		<path class="st0" d="M298.49,696.64c1.2,0,2.41,0,3.61,0c1.95,0,3.55,0.77,4.79,2.26c1.32,1.59,2.05,3.44,2.31,5.47
			c0.19,1.47-0.56,2.55-1.86,2.81c-1.26,0.25-2.43-0.49-2.86-1.84c-0.19-0.59-0.3-1.21-0.48-1.81c-0.33-1.15-1.09-1.86-2.3-1.92
			c-1.69-0.07-3.39-0.05-5.08-0.08c-0.79-0.01-0.77,0.63-0.9,1.11c-1.11,4.04-2.19,8.09-3.29,12.13c-1.06,3.92-2.11,7.83-3.19,11.74
			c-0.36,1.31-1.06,1.89-2.21,1.97c-1.76,0.12-2.96-1.39-2.48-3.2c0.97-3.66,1.98-7.31,2.97-10.97c1.36-5.04,2.71-10.07,4.07-15.11
			c0.56-2.09,1.22-2.58,3.41-2.59C296.18,696.63,297.33,696.63,298.49,696.64z"/>
	</g>
	<rect x="267" y="506.04" class="st1" width="63.61" height="316.05"/>
</g>
<g>
	<g>
		<path class="st0" d="M400.97,757.8c-3.37-0.1-6.94-1.05-9.78-3.84c-2.42-2.38-3.51-5.2-2.64-8.62c1.96-7.74,3.89-15.48,5.87-23.22
			c0.53-2.08,1.43-2.76,3.54-2.77c3.86-0.02,7.72-0.03,11.58,0.01c1.06,0.01,2.15,0.12,3.18,0.36c5.75,1.29,9.1,6.1,7.87,11.87
			c-1.17,5.49-2.57,10.96-4.26,16.31C414.38,754.12,408.52,757.81,400.97,757.8z M405.38,725.24
			C405.38,725.24,405.38,725.24,405.38,725.24c-1.55,0-3.11,0.02-4.66-0.01c-0.75-0.02-1.13,0.21-1.33,1
			c-1.65,6.6-3.38,13.17-5.01,19.77c-0.58,2.38,0.03,3.51,2.18,4.74c1.89,1.08,3.95,1.28,6.07,1.13c4.24-0.3,7.3-2.63,8.45-6.69
			c1.3-4.58,2.49-9.2,3.59-13.83c0.91-3.86-0.81-5.97-4.79-6.11C408.38,725.2,406.88,725.24,405.38,725.24z"/>
		<path class="st0" d="M405.26,535.44c1.95-3.13,3.91-6.26,5.85-9.4c3.04-4.92,6.07-9.86,9.11-14.78c0.9-1.45,2.42-1.95,3.85-1.3
			c1.68,0.76,2.17,2.54,1.08,4.34c-2.41,3.99-4.83,7.98-7.31,11.92c-6.35,10.12-12.73,20.23-19.12,30.32
			c-1.47,2.33-3.29,4.37-5.63,5.88c-1.93,1.25-4.02,1.99-6.37,1.88c-1.98-0.1-3.34-1.29-3.36-2.96c-0.01-1.75,1.24-2.91,3.31-2.89
			c2.46,0.02,4.2-1.3,5.57-3.06c1.77-2.28,3.16-4.86,4.96-7.11c2.19-2.74,2.61-5.63,2.22-9.08c-0.99-8.62-1.59-17.29-2.33-25.93
			c-0.2-2.33,1.05-3.69,3.23-3.53c1.58,0.11,2.43,0.88,2.59,2.52c0.35,3.57,0.64,7.15,0.95,10.73c0.18,2.08,0.38,4.16,0.56,6.24
			c0.18,2.02,0.34,4.04,0.51,6.06C405.05,535.35,405.15,535.39,405.26,535.44z"/>
		<path class="st0" d="M406.54,574.16c2.25,0,4.51-0.02,6.76,0c5.21,0.04,8.7,3.25,8.73,8.46c0.01,2.7-0.4,5.46-1.07,8.08
			c-1.63,6.33-3.53,12.59-5.32,18.88c-0.09,0.31-0.18,0.62-0.29,0.92c-0.63,1.62-2.1,2.4-3.57,1.91c-1.51-0.49-2.3-1.96-1.86-3.61
			c0.63-2.33,1.37-4.63,2-6.95c1.3-4.81,2.62-9.62,3.81-14.46c0.37-1.49,0.5-3.08,0.45-4.61c-0.06-2.09-0.85-2.71-2.95-2.72
			c-3.54-0.01-7.08,0.05-10.62-0.04c-1.24-0.03-1.77,0.34-2.09,1.55c-2.21,8.34-4.49,16.67-6.75,24.99
			c-0.35,1.29-0.66,2.6-1.06,3.88c-0.51,1.63-1.95,2.43-3.49,2.04c-1.52-0.39-2.47-1.81-2.06-3.47c1.08-4.37,2.24-8.72,3.41-13.07
			c1.68-6.26,3.4-12.52,5.09-18.78c0.68-2.51,1.29-3,3.97-3.01C401.93,574.15,404.24,574.16,406.54,574.16z"/>
		<path class="st0" d="M412.58,460.78c2.96-0.01,6.11,0.54,9.08,1.93c0.92,0.43,1.81,0.95,2.62,1.55c1.62,1.19,1.9,2.93,0.78,4.32
			c-1.07,1.34-2.79,1.52-4.28,0.28c-1.93-1.62-4.16-2.51-6.6-2.68c-1.9-0.13-3.87-0.08-5.74,0.25c-3.99,0.7-4.65,5.64-2.23,7.59
			c1.83,1.48,3.71,2.9,5.56,4.36c2.11,1.65,4.37,3.14,6.29,4.99c5.11,4.92,3.75,12.28-2.76,15.12c-1.5,0.66-3.17,1.11-4.79,1.25
			c-5.31,0.47-10.48-0.35-15.44-2.34c-1.8-0.72-2.48-2.35-1.81-3.88c0.67-1.52,2.36-2.13,4.08-1.49c0.05,0.02,0.1,0.05,0.15,0.06
			c2.66,0.79,5.3,1.69,8,2.34c2.11,0.52,4.28,0.35,6.32-0.48c0.73-0.3,1.47-0.69,2.07-1.2c1.68-1.42,1.86-3.66,0.36-5.27
			c-0.83-0.89-1.85-1.62-2.84-2.34c-2.35-1.69-4.78-3.27-7.08-5.02c-1.14-0.87-2.19-1.91-3.1-3.02c-2.96-3.57-3-7.84-0.16-11.52
			C403.9,461.91,407.83,460.71,412.58,460.78z"/>
		<path class="st0" d="M407.04,767.65c3.98,0.01,7.37,0.65,10.54,2.29c0.71,0.37,1.4,0.81,2.03,1.3c1.45,1.12,1.69,2.92,0.63,4.24
			c-1.01,1.26-2.8,1.47-4.17,0.35c-3.62-2.95-7.77-3.42-12.15-2.61c-2.73,0.5-4.03,2.15-3.8,4.89c0.08,0.93,0.57,2,1.22,2.66
			c1.27,1.29,2.75,2.38,4.19,3.49c2.3,1.76,4.73,3.36,6.94,5.21c2.42,2.03,4.08,4.55,3.84,7.93c-0.29,4.19-3.11,7.38-7.66,8.67
			c-3.71,1.05-7.46,0.88-11.16,0.14c-2.61-0.53-5.19-1.3-7.7-2.19c-1.41-0.5-1.9-2.03-1.46-3.34c0.46-1.36,1.66-2.15,3.11-2.01
			c0.37,0.03,0.73,0.16,1.09,0.26c2.66,0.79,5.3,1.69,7.99,2.37c2.17,0.55,4.38,0.41,6.47-0.46c0.73-0.3,1.47-0.7,2.06-1.21
			c1.63-1.39,1.85-3.55,0.43-5.14c-0.88-0.98-2-1.78-3.08-2.55c-1.87-1.35-3.82-2.58-5.69-3.93c-1.04-0.75-2.03-1.59-2.96-2.47
			c-5.69-5.41-4.36-13.25,2.8-16.55C402.78,767.95,405.08,767.55,407.04,767.65z"/>
		<path class="st0" d="M407.99,622.42c2.09,0,4.18-0.02,6.28,0.01c2.12,0.03,3.28,1.08,3.28,2.92c0.01,1.81-1.21,2.94-3.27,2.95
			c-3.16,0.03-6.33,0.04-9.49-0.01c-0.99-0.02-1.54,0.2-1.83,1.27c-1.66,6.16-3.44,12.29-5.08,18.45c-0.37,1.38-0.49,2.86-0.44,4.29
			c0.07,2.35,1.11,3.27,3.44,3.31c2.47,0.04,4.93,0.03,7.4,0.05c0.53,0.01,1.08,0.01,1.59,0.13c1.29,0.33,2.21,1.6,2.14,2.87
			c-0.07,1.23-1.02,2.54-2.27,2.57c-3.9,0.07-7.85,0.33-11.69-0.19c-3.9-0.53-6.41-4.17-6.5-8.66c-0.04-2.06,0.21-4.2,0.74-6.19
			c1.89-7.15,3.94-14.26,5.95-21.38c0.49-1.73,1.31-2.35,3.16-2.37C403.59,622.4,405.79,622.43,407.99,622.42z"/>
		<path class="st0" d="M406.53,671.21c1.45,0,2.89,0,4.34,0c2.35,0,4.27,0.93,5.76,2.72c1.58,1.91,2.46,4.14,2.78,6.57
			c0.23,1.76-0.68,3.07-2.23,3.38c-1.51,0.3-2.92-0.59-3.44-2.21c-0.23-0.71-0.36-1.45-0.57-2.17c-0.4-1.38-1.31-2.24-2.76-2.3
			c-2.03-0.09-4.07-0.06-6.1-0.1c-0.94-0.02-0.93,0.76-1.08,1.34c-1.33,4.86-2.64,9.72-3.95,14.58c-1.27,4.7-2.54,9.41-3.84,14.11
			c-0.43,1.57-1.28,2.28-2.65,2.37c-2.12,0.15-3.55-1.67-2.98-3.84c1.16-4.4,2.38-8.79,3.57-13.18c1.63-6.05,3.26-12.1,4.89-18.15
			c0.68-2.51,1.47-3.1,4.1-3.11C403.74,671.2,405.13,671.2,406.53,671.21z"/>
	</g>
	<rect x="368.69" y="442.21" class="st1" width="76.42" height="379.72"/>
</g>
<g>
	<g>
		<path class="st0" d="M496.48,760.5c-3.37-0.1-6.94-1.05-9.78-3.84c-2.42-2.38-3.51-5.2-2.64-8.62c1.96-7.74,3.89-15.48,5.87-23.22
			c0.53-2.08,1.43-2.76,3.54-2.77c3.86-0.02,7.72-0.03,11.58,0.01c1.06,0.01,2.15,0.12,3.18,0.36c5.75,1.29,9.1,6.1,7.87,11.87
			c-1.17,5.49-2.57,10.96-4.26,16.31C509.89,756.81,504.03,760.51,496.48,760.5z M500.89,727.94
			C500.89,727.93,500.89,727.93,500.89,727.94c-1.55,0-3.11,0.02-4.66-0.01c-0.75-0.02-1.13,0.21-1.33,1
			c-1.65,6.6-3.38,13.17-5.01,19.77c-0.58,2.38,0.03,3.51,2.18,4.74c1.89,1.08,3.95,1.28,6.07,1.13c4.24-0.3,7.3-2.63,8.45-6.69
			c1.3-4.58,2.49-9.2,3.59-13.83c0.91-3.86-0.81-5.97-4.79-6.11C503.89,727.89,502.39,727.94,500.89,727.94z"/>
		<path class="st0" d="M500.76,538.14c1.95-3.13,3.91-6.26,5.85-9.4c3.04-4.92,6.07-9.86,9.11-14.78c0.9-1.45,2.42-1.95,3.85-1.3
			c1.68,0.76,2.17,2.54,1.08,4.34c-2.41,3.99-4.83,7.98-7.31,11.92c-6.35,10.12-12.73,20.23-19.12,30.32
			c-1.47,2.33-3.29,4.37-5.63,5.88c-1.93,1.25-4.02,1.99-6.37,1.88c-1.98-0.1-3.34-1.29-3.36-2.96c-0.01-1.75,1.24-2.91,3.31-2.89
			c2.46,0.02,4.2-1.3,5.57-3.06c1.77-2.28,3.16-4.86,4.96-7.11c2.19-2.74,2.61-5.63,2.22-9.08c-0.99-8.62-1.59-17.29-2.33-25.93
			c-0.2-2.33,1.05-3.69,3.23-3.53c1.58,0.11,2.43,0.88,2.59,2.52c0.35,3.57,0.64,7.15,0.95,10.73c0.18,2.08,0.38,4.16,0.56,6.24
			c0.18,2.02,0.34,4.04,0.51,6.06C500.55,538.04,500.66,538.09,500.76,538.14z"/>
		<path class="st0" d="M502.05,576.86c2.25,0,4.51-0.02,6.76,0c5.21,0.04,8.7,3.25,8.73,8.46c0.01,2.7-0.4,5.46-1.07,8.08
			c-1.63,6.33-3.53,12.59-5.32,18.88c-0.09,0.31-0.18,0.62-0.29,0.92c-0.63,1.62-2.1,2.4-3.57,1.91c-1.51-0.49-2.3-1.96-1.86-3.61
			c0.63-2.33,1.37-4.63,2-6.95c1.3-4.81,2.62-9.62,3.81-14.46c0.37-1.49,0.5-3.08,0.45-4.61c-0.06-2.09-0.85-2.71-2.95-2.72
			c-3.54-0.01-7.08,0.05-10.62-0.04c-1.24-0.03-1.77,0.34-2.09,1.55c-2.21,8.34-4.49,16.67-6.75,24.99
			c-0.35,1.29-0.66,2.6-1.06,3.88c-0.51,1.63-1.95,2.43-3.49,2.04c-1.52-0.39-2.47-1.81-2.06-3.47c1.08-4.37,2.24-8.72,3.41-13.07
			c1.68-6.26,3.4-12.52,5.09-18.78c0.68-2.51,1.29-3,3.97-3.01C497.44,576.85,499.75,576.86,502.05,576.86z"/>
		<path class="st0" d="M508.09,463.47c2.96-0.01,6.11,0.54,9.08,1.93c0.92,0.43,1.81,0.95,2.62,1.55c1.62,1.19,1.9,2.93,0.78,4.32
			c-1.07,1.34-2.79,1.52-4.28,0.28c-1.93-1.62-4.16-2.51-6.6-2.68c-1.9-0.13-3.87-0.08-5.74,0.25c-3.99,0.7-4.65,5.64-2.23,7.59
			c1.83,1.48,3.71,2.9,5.56,4.36c2.11,1.65,4.37,3.14,6.29,4.99c5.11,4.92,3.75,12.28-2.76,15.12c-1.5,0.66-3.17,1.11-4.79,1.25
			c-5.31,0.47-10.48-0.35-15.44-2.34c-1.8-0.72-2.48-2.35-1.81-3.88c0.67-1.52,2.36-2.13,4.08-1.49c0.05,0.02,0.1,0.05,0.15,0.06
			c2.66,0.79,5.3,1.69,8,2.34c2.11,0.52,4.28,0.35,6.32-0.48c0.73-0.3,1.47-0.69,2.07-1.2c1.68-1.42,1.86-3.66,0.36-5.27
			c-0.83-0.89-1.85-1.62-2.84-2.34c-2.35-1.69-4.78-3.27-7.08-5.02c-1.14-0.87-2.19-1.91-3.1-3.02c-2.96-3.57-3-7.84-0.16-11.52
			C499.4,464.61,503.34,463.41,508.09,463.47z"/>
		<path class="st0" d="M502.55,770.34c3.98,0.01,7.37,0.65,10.54,2.29c0.71,0.37,1.4,0.81,2.03,1.3c1.45,1.12,1.69,2.92,0.63,4.24
			c-1.01,1.26-2.8,1.47-4.17,0.35c-3.62-2.95-7.77-3.42-12.15-2.61c-2.73,0.5-4.03,2.15-3.8,4.89c0.08,0.93,0.57,2,1.22,2.66
			c1.27,1.29,2.75,2.38,4.19,3.49c2.3,1.76,4.73,3.36,6.94,5.21c2.42,2.03,4.08,4.55,3.84,7.93c-0.29,4.19-3.11,7.38-7.66,8.67
			c-3.71,1.05-7.46,0.88-11.16,0.14c-2.61-0.53-5.19-1.3-7.7-2.19c-1.41-0.5-1.9-2.03-1.46-3.34c0.46-1.36,1.66-2.15,3.11-2.01
			c0.37,0.03,0.73,0.16,1.09,0.26c2.66,0.79,5.3,1.69,7.99,2.37c2.17,0.55,4.38,0.41,6.47-0.46c0.73-0.3,1.47-0.7,2.06-1.21
			c1.63-1.39,1.85-3.55,0.43-5.14c-0.88-0.98-2-1.78-3.08-2.55c-1.87-1.35-3.82-2.58-5.69-3.93c-1.04-0.75-2.03-1.59-2.96-2.47
			c-5.69-5.41-4.36-13.25,2.8-16.55C498.29,770.65,500.59,770.24,502.55,770.34z"/>
		<path class="st0" d="M503.5,625.12c2.09,0,4.18-0.02,6.28,0.01c2.12,0.03,3.28,1.08,3.28,2.92c0.01,1.81-1.21,2.94-3.27,2.95
			c-3.16,0.03-6.33,0.04-9.49-0.01c-0.99-0.02-1.54,0.2-1.83,1.27c-1.66,6.16-3.44,12.29-5.08,18.45c-0.37,1.38-0.49,2.86-0.44,4.29
			c0.07,2.35,1.11,3.27,3.44,3.31c2.47,0.04,4.93,0.03,7.4,0.05c0.53,0.01,1.08,0.01,1.59,0.13c1.29,0.33,2.21,1.6,2.14,2.87
			c-0.07,1.23-1.02,2.54-2.27,2.57c-3.9,0.07-7.85,0.33-11.69-0.19c-3.9-0.53-6.41-4.17-6.5-8.66c-0.04-2.06,0.21-4.2,0.74-6.19
			c1.89-7.15,3.94-14.26,5.95-21.38c0.49-1.73,1.31-2.35,3.16-2.37C499.1,625.1,501.3,625.12,503.5,625.12z"/>
		<path class="st0" d="M502.04,673.9c1.45,0,2.89,0,4.34,0c2.35,0,4.27,0.93,5.76,2.72c1.58,1.91,2.46,4.14,2.78,6.57
			c0.23,1.76-0.68,3.07-2.23,3.38c-1.51,0.3-2.92-0.59-3.44-2.21c-0.23-0.71-0.36-1.45-0.57-2.17c-0.4-1.38-1.31-2.24-2.76-2.3
			c-2.03-0.09-4.07-0.06-6.1-0.1c-0.94-0.02-0.93,0.76-1.08,1.34c-1.33,4.86-2.64,9.72-3.95,14.58c-1.27,4.7-2.54,9.41-3.84,14.11
			c-0.43,1.57-1.28,2.28-2.65,2.37c-2.12,0.15-3.55-1.67-2.98-3.84c1.16-4.4,2.38-8.79,3.57-13.18c1.63-6.05,3.26-12.1,4.89-18.15
			c0.68-2.51,1.47-3.1,4.1-3.11C499.25,673.9,500.64,673.9,502.04,673.9z"/>
	</g>
	<rect x="464.2" y="444.91" class="st1" width="76.42" height="379.72"/>
</g>
<g>
	<g>
		<path class="st2" d="M432.97,244.84c12.83,0.02,22.78-6.26,26.11-16.81c2.87-9.1,5.25-18.38,7.23-27.71
			c2.08-9.8-3.61-17.97-13.38-20.16c-1.76-0.39-3.6-0.59-5.41-0.6c-6.56-0.07-13.11-0.06-19.67-0.02c-3.59,0.02-5.12,1.18-6.02,4.71
			c-3.36,13.14-6.64,26.29-9.97,39.44c-1.47,5.8,0.37,10.6,4.49,14.64C421.19,243.06,427.25,244.68,432.97,244.84z M234.41,223.7
			c-0.18-0.08-0.36-0.17-0.54-0.25c-0.29-3.43-0.57-6.86-0.87-10.3c-0.31-3.54-0.64-7.07-0.95-10.61
			c-0.54-6.08-1.03-12.16-1.62-18.22c-0.27-2.78-1.72-4.08-4.4-4.27c-3.7-0.27-5.84,2.05-5.49,6c1.27,14.69,2.29,29.41,3.97,44.05
			c0.67,5.86-0.05,10.76-3.77,15.42c-3.05,3.83-5.43,8.2-8.43,12.08c-2.31,2.99-5.28,5.24-9.45,5.2c-3.52-0.03-5.64,1.93-5.62,4.9
			c0.02,2.85,2.33,4.87,5.7,5.03c3.98,0.19,7.53-1.07,10.82-3.19c3.98-2.57,7.06-6.03,9.56-9.99
			c10.86-17.15,21.69-34.32,32.48-51.51c4.21-6.71,8.33-13.48,12.42-20.25c1.84-3.05,1.02-6.08-1.84-7.37
			c-2.44-1.1-5.02-0.26-6.55,2.21c-5.17,8.36-10.31,16.74-15.48,25.1C241.05,213.07,237.72,218.38,234.41,223.7z M293.62,180.13
			c-3.92,0-7.83-0.01-11.75,0c-4.54,0.02-5.59,0.84-6.74,5.11c-2.88,10.63-5.79,21.26-8.64,31.9c-1.98,7.39-3.96,14.77-5.79,22.2
			c-0.69,2.81,0.92,5.23,3.5,5.89c2.63,0.67,5.07-0.7,5.94-3.46c0.68-2.17,1.2-4.39,1.8-6.59c3.84-14.15,7.71-28.29,11.46-42.46
			c0.54-2.05,1.44-2.68,3.55-2.63c6.01,0.15,12.02,0.04,18.04,0.06c3.58,0.01,4.91,1.07,5.01,4.62c0.08,2.61-0.15,5.31-0.77,7.83
			c-2.02,8.22-4.26,16.39-6.47,24.57c-1.07,3.95-2.33,7.86-3.39,11.81c-0.76,2.8,0.59,5.28,3.16,6.12c2.51,0.82,4.99-0.5,6.07-3.25
			c0.2-0.51,0.35-1.04,0.5-1.56c3.04-10.68,6.26-21.32,9.03-32.07c1.14-4.45,1.85-9.15,1.82-13.73c-0.05-8.85-5.98-14.3-14.83-14.37
			C301.27,180.11,297.44,180.13,293.62,180.13z M192.59,178.52c-8.08-0.11-14.75,1.93-19.58,8.17c-4.83,6.25-4.75,13.5,0.27,19.56
			c1.56,1.88,3.33,3.66,5.27,5.13c3.92,2.96,8.04,5.65,12.03,8.52c1.69,1.22,3.43,2.46,4.83,3.98c2.54,2.75,2.23,6.54-0.61,8.96
			c-1.02,0.86-2.27,1.52-3.52,2.03c-3.47,1.42-7.15,1.69-10.74,0.82c-4.58-1.12-9.06-2.64-13.59-3.98c-0.09-0.03-0.17-0.07-0.25-0.1
			c-2.92-1.1-5.8-0.05-6.93,2.52c-1.14,2.6,0.02,5.36,3.07,6.59c8.41,3.38,17.2,4.77,26.22,3.97c2.76-0.24,5.6-1.02,8.14-2.13
			c11.05-4.83,13.36-17.33,4.68-25.69c-3.26-3.14-7.1-5.67-10.68-8.47c-3.15-2.47-6.33-4.89-9.44-7.4
			c-4.1-3.31-2.98-11.71,3.79-12.89c3.19-0.56,6.53-0.65,9.76-0.42c4.15,0.29,7.92,1.81,11.2,4.56c2.53,2.12,5.44,1.8,7.27-0.47
			c1.89-2.36,1.42-5.31-1.33-7.34c-1.38-1.02-2.9-1.9-4.45-2.63C202.97,179.44,197.62,178.5,192.59,178.52z M495.82,178.51
			c-3.33-0.17-7.24,0.51-10.95,2.22c-12.16,5.61-14.43,18.93-4.75,28.12c1.58,1.5,3.26,2.92,5.03,4.2c3.17,2.29,6.48,4.39,9.66,6.68
			c1.84,1.32,3.73,2.67,5.23,4.34c2.41,2.7,2.03,6.37-0.74,8.73c-1.02,0.87-2.26,1.54-3.51,2.05c-3.56,1.47-7.32,1.7-11,0.78
			c-4.57-1.15-9.05-2.67-13.58-4.02c-0.61-0.18-1.22-0.39-1.85-0.45c-2.47-0.23-4.52,1.11-5.29,3.42c-0.75,2.22,0.08,4.83,2.47,5.68
			c4.26,1.51,8.64,2.83,13.07,3.72c6.29,1.27,12.65,1.55,18.95-0.23c7.73-2.19,12.51-7.6,13.01-14.72
			c0.4-5.75-2.42-10.03-6.53-13.48c-3.76-3.15-7.88-5.87-11.78-8.85c-2.45-1.88-4.97-3.73-7.12-5.92c-1.11-1.13-1.95-2.95-2.08-4.52
			c-0.38-4.65,1.81-7.45,6.45-8.3c7.44-1.36,14.49-0.58,20.64,4.44c2.34,1.91,5.37,1.54,7.08-0.6c1.8-2.25,1.39-5.29-1.07-7.2
			c-1.07-0.83-2.24-1.58-3.45-2.2C508.34,179.62,502.57,178.52,495.82,178.51z M350.15,179.53c-3.74,0-7.47-0.05-11.21,0.01
			c-3.13,0.05-4.53,1.1-5.36,4.03c-3.41,12.1-6.9,24.17-10.1,36.33c-0.89,3.39-1.33,7.01-1.26,10.52
			c0.15,7.63,4.41,13.82,11.04,14.72c6.52,0.88,13.24,0.45,19.86,0.33c2.13-0.04,3.73-2.27,3.85-4.36c0.13-2.15-1.43-4.32-3.63-4.88
			c-0.87-0.22-1.8-0.22-2.71-0.23c-4.19-0.04-8.38-0.02-12.57-0.09c-3.96-0.07-5.72-1.63-5.84-5.62c-0.07-2.43,0.13-4.95,0.75-7.29
			c2.78-10.47,5.8-20.88,8.62-31.35c0.49-1.81,1.42-2.19,3.1-2.16c5.37,0.09,10.75,0.07,16.13,0.02c3.51-0.03,5.57-1.94,5.56-5.02
			c-0.01-3.12-1.98-4.92-5.58-4.96C357.25,179.49,353.7,179.52,350.15,179.53z M391.49,180.31c-2.37,0-4.73-0.01-7.1,0
			c-4.47,0.01-5.82,1.02-6.97,5.28c-2.78,10.28-5.53,20.56-8.31,30.83c-2.02,7.47-4.08,14.92-6.06,22.39
			c-0.98,3.7,1.47,6.78,5.06,6.53c2.34-0.16,3.77-1.36,4.51-4.03c2.2-7.98,4.35-15.98,6.52-23.97c2.24-8.26,4.45-16.52,6.71-24.76
			c0.27-0.98,0.24-2.3,1.84-2.27c3.46,0.06,6.92,0.02,10.37,0.17c2.47,0.11,4,1.57,4.68,3.91c0.36,1.22,0.59,2.48,0.98,3.69
			c0.88,2.75,3.28,4.26,5.85,3.75c2.64-0.52,4.18-2.74,3.79-5.74c-0.54-4.14-2.04-7.93-4.72-11.17c-2.53-3.05-5.79-4.62-9.78-4.62
			C396.4,180.31,393.94,180.31,391.49,180.31z"/>
		<path d="M432.97,244.84c-5.72-0.16-11.78-1.78-16.62-6.52c-4.12-4.04-5.96-8.84-4.49-14.64c3.33-13.14,6.61-26.3,9.97-39.44
			c0.9-3.53,2.43-4.69,6.02-4.71c6.56-0.04,13.11-0.05,19.67,0.02c1.81,0.02,3.65,0.21,5.41,0.6c9.77,2.19,15.46,10.37,13.38,20.16
			c-1.98,9.33-4.36,18.62-7.23,27.71C455.75,238.58,445.8,244.86,432.97,244.84z M440.46,189.53
			C440.46,189.53,440.46,189.53,440.46,189.53c-2.64-0.01-5.28,0.03-7.92-0.02c-1.27-0.03-1.93,0.35-2.26,1.71
			c-2.8,11.21-5.75,22.38-8.51,33.59c-0.99,4.04,0.05,5.96,3.71,8.05c3.21,1.84,6.71,2.18,10.31,1.93
			c7.19-0.51,12.4-4.46,14.36-11.36c2.21-7.78,4.24-15.62,6.1-23.49c1.55-6.56-1.37-10.15-8.14-10.38
			C445.56,189.46,443.01,189.53,440.46,189.53z"/>
		<path d="M234.41,223.7c3.31-5.32,6.64-10.63,9.93-15.96c5.17-8.36,10.31-16.74,15.48-25.1c1.53-2.47,4.1-3.31,6.55-2.21
			c2.86,1.29,3.68,4.32,1.84,7.37c-4.1,6.78-8.21,13.55-12.42,20.25c-10.79,17.19-21.63,34.36-32.48,51.51
			c-2.5,3.96-5.59,7.42-9.56,9.99c-3.29,2.12-6.83,3.39-10.82,3.19c-3.37-0.16-5.68-2.18-5.7-5.03c-0.02-2.98,2.1-4.94,5.62-4.9
			c4.17,0.04,7.14-2.21,9.45-5.2c3-3.88,5.38-8.25,8.43-12.08c3.71-4.66,4.44-9.56,3.77-15.42c-1.67-14.64-2.69-29.36-3.97-44.05
			c-0.34-3.95,1.79-6.26,5.49-6c2.68,0.19,4.13,1.49,4.4,4.27c0.59,6.07,1.08,12.15,1.62,18.22c0.31,3.54,0.64,7.07,0.95,10.61
			c0.3,3.43,0.58,6.86,0.87,10.3C234.05,223.53,234.23,223.62,234.41,223.7z"/>
		<path d="M293.62,180.13c3.83,0,7.65-0.03,11.48,0.01c8.85,0.07,14.78,5.53,14.83,14.37c0.03,4.58-0.68,9.28-1.82,13.73
			c-2.77,10.75-5.99,21.39-9.03,32.07c-0.15,0.53-0.3,1.05-0.5,1.56c-1.08,2.75-3.56,4.07-6.07,3.25c-2.56-0.84-3.91-3.32-3.16-6.12
			c1.07-3.95,2.32-7.86,3.39-11.81c2.21-8.17,4.45-16.34,6.47-24.57c0.62-2.53,0.85-5.23,0.77-7.83c-0.1-3.55-1.44-4.61-5.01-4.62
			c-6.01-0.02-12.03,0.09-18.04-0.06c-2.1-0.05-3.01,0.58-3.55,2.63c-3.75,14.17-7.63,28.31-11.46,42.46
			c-0.6,2.2-1.12,4.42-1.8,6.59c-0.86,2.76-3.31,4.13-5.94,3.46c-2.58-0.66-4.2-3.08-3.5-5.89c1.83-7.42,3.81-14.81,5.79-22.2
			c2.85-10.64,5.77-21.26,8.64-31.9c1.15-4.27,2.2-5.09,6.74-5.11C285.78,180.12,289.7,180.13,293.62,180.13z"/>
		<path d="M192.59,178.52c5.03-0.01,10.38,0.92,15.42,3.28c1.56,0.73,3.07,1.61,4.45,2.63c2.75,2.03,3.22,4.97,1.33,7.34
			c-1.82,2.27-4.74,2.59-7.27,0.47c-3.28-2.74-7.06-4.26-11.2-4.56c-3.23-0.23-6.57-0.14-9.76,0.42c-6.77,1.18-7.89,9.58-3.79,12.89
			c3.11,2.51,6.3,4.93,9.44,7.4c3.58,2.8,7.42,5.34,10.68,8.47c8.68,8.36,6.37,20.86-4.68,25.69c-2.55,1.11-5.38,1.89-8.14,2.13
			c-9.03,0.79-17.81-0.59-26.22-3.97c-3.06-1.23-4.22-3.99-3.07-6.59c1.13-2.58,4.01-3.62,6.93-2.52c0.09,0.03,0.17,0.08,0.25,0.1
			c4.53,1.35,9.01,2.86,13.59,3.98c3.59,0.88,7.27,0.6,10.74-0.82c1.25-0.51,2.5-1.17,3.52-2.03c2.85-2.42,3.15-6.21,0.61-8.96
			c-1.4-1.52-3.14-2.76-4.83-3.98c-3.99-2.87-8.12-5.56-12.03-8.52c-1.94-1.47-3.71-3.25-5.27-5.13c-5.02-6.06-5.1-13.31-0.27-19.56
			C177.84,180.44,184.52,178.41,192.59,178.52z"/>
		<path d="M495.82,178.51c6.76,0.01,12.52,1.1,17.9,3.88c1.21,0.62,2.37,1.37,3.45,2.2c2.46,1.91,2.88,4.95,1.07,7.2
			c-1.71,2.13-4.75,2.5-7.08,0.6c-6.15-5.02-13.19-5.8-20.64-4.44c-4.64,0.85-6.84,3.66-6.45,8.3c0.13,1.57,0.97,3.39,2.08,4.52
			c2.15,2.19,4.67,4.05,7.12,5.92c3.9,2.99,8.03,5.7,11.78,8.85c4.11,3.45,6.93,7.73,6.53,13.48c-0.5,7.12-5.28,12.53-13.01,14.72
			c-6.3,1.79-12.67,1.5-18.95,0.23c-4.43-0.89-8.81-2.21-13.07-3.72c-2.39-0.85-3.22-3.46-2.47-5.68c0.78-2.3,2.82-3.65,5.29-3.42
			c0.63,0.06,1.24,0.27,1.85,0.45c4.52,1.35,9.01,2.86,13.58,4.02c3.68,0.93,7.44,0.7,11-0.78c1.24-0.51,2.49-1.19,3.51-2.05
			c2.77-2.36,3.15-6.03,0.74-8.73c-1.49-1.67-3.39-3.02-5.23-4.34c-3.18-2.29-6.49-4.39-9.66-6.68c-1.77-1.28-3.45-2.7-5.03-4.2
			c-9.67-9.19-7.41-22.51,4.75-28.12C488.57,179.03,492.49,178.34,495.82,178.51z"/>
		<path d="M350.15,179.52c3.55,0,7.11-0.04,10.66,0.01c3.59,0.05,5.56,1.84,5.58,4.96c0.01,3.07-2.05,4.99-5.56,5.02
			c-5.38,0.04-10.75,0.06-16.13-0.02c-1.68-0.03-2.61,0.35-3.1,2.16c-2.82,10.46-5.84,20.87-8.62,31.35
			c-0.62,2.34-0.83,4.86-0.75,7.29c0.12,4,1.88,5.56,5.84,5.62c4.19,0.07,8.38,0.04,12.57,0.09c0.91,0.01,1.84,0.01,2.71,0.23
			c2.2,0.55,3.75,2.73,3.63,4.88c-0.12,2.09-1.72,4.32-3.85,4.36c-6.63,0.12-13.34,0.55-19.86-0.33
			c-6.63-0.89-10.89-7.09-11.04-14.72c-0.07-3.5,0.36-7.13,1.26-10.52c3.21-12.15,6.69-24.23,10.1-36.33
			c0.83-2.94,2.23-3.98,5.36-4.03C342.67,179.48,346.41,179.53,350.15,179.52z"/>
		<path d="M391.49,180.31c2.46,0,4.92,0,7.37,0c3.98,0,7.25,1.57,9.78,4.62c2.69,3.24,4.18,7.03,4.72,11.17
			c0.39,2.99-1.15,5.21-3.79,5.74c-2.57,0.51-4.96-1-5.85-3.75c-0.39-1.21-0.62-2.47-0.98-3.69c-0.68-2.34-2.22-3.8-4.68-3.91
			c-3.45-0.15-6.91-0.11-10.37-0.17c-1.6-0.03-1.57,1.29-1.84,2.27c-2.26,8.25-4.48,16.51-6.71,24.76
			c-2.17,7.99-4.32,15.99-6.52,23.97c-0.74,2.67-2.17,3.87-4.51,4.03c-3.59,0.25-6.04-2.83-5.06-6.53
			c1.98-7.47,4.04-14.93,6.06-22.39c2.77-10.28,5.53-20.56,8.31-30.83c1.15-4.26,2.5-5.27,6.97-5.28
			C386.75,180.3,389.12,180.31,391.49,180.31z"/>
		<path class="st2" d="M440.46,189.53c2.55,0,5.1-0.07,7.64,0.01c6.77,0.23,9.69,3.82,8.14,10.38c-1.86,7.87-3.89,15.71-6.1,23.49
			c-1.96,6.9-7.17,10.85-14.36,11.36c-3.59,0.25-7.1-0.09-10.31-1.93c-3.66-2.1-4.7-4.02-3.71-8.05
			c2.76-11.22,5.71-22.38,8.51-33.59c0.34-1.35,0.99-1.73,2.26-1.71C435.18,189.57,437.82,189.53,440.46,189.53
			C440.46,189.53,440.46,189.53,440.46,189.53z"/>
	</g>
	<rect x="149.39" y="151.85" class="st1" width="398.24" height="128.1"/>
</g>
<g>
	<g>
		<path class="st2" d="M432.97,383.5c12.83,0.02,22.78-6.26,26.11-16.81c2.87-9.1,5.25-18.38,7.23-27.71
			c2.08-9.8-3.61-17.97-13.38-20.16c-1.76-0.39-3.6-0.59-5.41-0.6c-6.56-0.07-13.11-0.06-19.67-0.02c-3.59,0.02-5.12,1.18-6.02,4.71
			c-3.36,13.14-6.64,26.29-9.97,39.44c-1.47,5.8,0.37,10.6,4.49,14.64C421.19,381.73,427.25,383.34,432.97,383.5z M234.41,362.36
			c-0.18-0.08-0.36-0.17-0.54-0.25c-0.29-3.43-0.57-6.86-0.87-10.3c-0.31-3.54-0.64-7.07-0.95-10.61
			c-0.54-6.08-1.03-12.16-1.62-18.22c-0.27-2.78-1.72-4.08-4.4-4.27c-3.7-0.27-5.84,2.05-5.49,6c1.27,14.69,2.29,29.41,3.97,44.05
			c0.67,5.86-0.05,10.76-3.77,15.42c-3.05,3.83-5.43,8.2-8.43,12.08c-2.31,2.99-5.28,5.24-9.45,5.2c-3.52-0.03-5.64,1.93-5.62,4.9
			c0.02,2.85,2.33,4.87,5.7,5.03c3.98,0.19,7.53-1.07,10.82-3.19c3.98-2.57,7.06-6.03,9.56-9.99
			c10.86-17.15,21.69-34.32,32.48-51.51c4.21-6.71,8.33-13.48,12.42-20.25c1.84-3.05,1.02-6.08-1.84-7.37
			c-2.44-1.1-5.02-0.26-6.55,2.21c-5.17,8.36-10.31,16.74-15.48,25.1C241.05,351.73,237.72,357.04,234.41,362.36z M293.62,318.79
			c-3.92,0-7.83-0.01-11.75,0c-4.54,0.02-5.59,0.84-6.74,5.11c-2.88,10.63-5.79,21.26-8.64,31.9c-1.98,7.39-3.96,14.77-5.79,22.2
			c-0.69,2.81,0.92,5.23,3.5,5.89c2.63,0.67,5.07-0.7,5.94-3.46c0.68-2.17,1.2-4.39,1.8-6.59c3.84-14.15,7.71-28.29,11.46-42.46
			c0.54-2.05,1.44-2.68,3.55-2.63c6.01,0.15,12.02,0.04,18.04,0.06c3.58,0.01,4.91,1.07,5.01,4.62c0.08,2.61-0.15,5.31-0.77,7.83
			c-2.02,8.22-4.26,16.39-6.47,24.57c-1.07,3.95-2.33,7.86-3.39,11.81c-0.76,2.8,0.59,5.28,3.16,6.12c2.51,0.82,4.99-0.5,6.07-3.25
			c0.2-0.51,0.35-1.04,0.5-1.56c3.04-10.68,6.26-21.32,9.03-32.07c1.14-4.45,1.85-9.15,1.82-13.73c-0.05-8.85-5.98-14.3-14.83-14.37
			C301.27,318.77,297.44,318.8,293.62,318.79z M192.59,317.18c-8.08-0.11-14.75,1.93-19.58,8.17c-4.83,6.25-4.75,13.5,0.27,19.56
			c1.56,1.88,3.33,3.66,5.27,5.13c3.92,2.96,8.04,5.65,12.03,8.52c1.69,1.22,3.43,2.46,4.83,3.98c2.54,2.75,2.23,6.54-0.61,8.96
			c-1.02,0.86-2.27,1.52-3.52,2.03c-3.47,1.42-7.15,1.69-10.74,0.82c-4.58-1.12-9.06-2.64-13.59-3.98c-0.09-0.03-0.17-0.07-0.25-0.1
			c-2.92-1.1-5.8-0.05-6.93,2.52c-1.14,2.6,0.02,5.36,3.07,6.59c8.41,3.38,17.2,4.77,26.22,3.97c2.76-0.24,5.6-1.02,8.14-2.13
			c11.05-4.83,13.36-17.33,4.68-25.69c-3.26-3.14-7.1-5.67-10.68-8.47c-3.15-2.47-6.33-4.89-9.44-7.4
			c-4.1-3.31-2.98-11.71,3.79-12.89c3.19-0.56,6.53-0.65,9.76-0.42c4.15,0.29,7.92,1.81,11.2,4.56c2.53,2.12,5.44,1.8,7.27-0.47
			c1.89-2.36,1.42-5.31-1.33-7.34c-1.38-1.02-2.9-1.9-4.45-2.63C202.97,318.1,197.62,317.17,192.59,317.18z M495.82,317.18
			c-3.33-0.17-7.24,0.51-10.95,2.22c-12.16,5.61-14.43,18.93-4.75,28.12c1.58,1.5,3.26,2.92,5.03,4.2c3.17,2.29,6.48,4.39,9.66,6.68
			c1.84,1.32,3.73,2.67,5.23,4.34c2.41,2.7,2.03,6.37-0.74,8.73c-1.02,0.87-2.26,1.54-3.51,2.05c-3.56,1.47-7.32,1.7-11,0.78
			c-4.57-1.15-9.05-2.67-13.58-4.02c-0.61-0.18-1.22-0.39-1.85-0.45c-2.47-0.23-4.52,1.11-5.29,3.42c-0.75,2.22,0.08,4.83,2.47,5.68
			c4.26,1.51,8.64,2.83,13.07,3.72c6.29,1.27,12.65,1.55,18.95-0.23c7.73-2.19,12.51-7.6,13.01-14.72
			c0.4-5.75-2.42-10.03-6.53-13.48c-3.76-3.15-7.88-5.87-11.78-8.85c-2.45-1.88-4.97-3.73-7.12-5.92c-1.11-1.13-1.95-2.95-2.08-4.52
			c-0.38-4.65,1.81-7.45,6.45-8.3c7.44-1.36,14.49-0.58,20.64,4.44c2.34,1.91,5.37,1.54,7.08-0.6c1.8-2.25,1.39-5.29-1.07-7.2
			c-1.07-0.83-2.24-1.58-3.45-2.2C508.34,318.28,502.57,317.19,495.82,317.18z M350.15,318.19c-3.74,0-7.47-0.05-11.21,0.01
			c-3.13,0.05-4.53,1.1-5.36,4.03c-3.41,12.1-6.9,24.17-10.1,36.33c-0.89,3.39-1.33,7.01-1.26,10.52
			c0.15,7.63,4.41,13.82,11.04,14.72c6.52,0.88,13.24,0.45,19.86,0.33c2.13-0.04,3.73-2.27,3.85-4.36c0.13-2.15-1.43-4.32-3.63-4.88
			c-0.87-0.22-1.8-0.22-2.71-0.23c-4.19-0.04-8.38-0.02-12.57-0.09c-3.96-0.07-5.72-1.63-5.84-5.62c-0.07-2.43,0.13-4.95,0.75-7.29
			c2.78-10.47,5.8-20.88,8.62-31.35c0.49-1.81,1.42-2.19,3.1-2.16c5.37,0.09,10.75,0.07,16.13,0.02c3.51-0.03,5.57-1.94,5.56-5.02
			c-0.01-3.12-1.98-4.92-5.58-4.96C357.25,318.15,353.7,318.19,350.15,318.19z M391.49,318.97c-2.37,0-4.73-0.01-7.1,0
			c-4.47,0.01-5.82,1.02-6.97,5.28c-2.78,10.27-5.53,20.56-8.31,30.83c-2.02,7.47-4.08,14.92-6.06,22.39
			c-0.98,3.7,1.47,6.78,5.06,6.53c2.34-0.16,3.77-1.36,4.51-4.03c2.2-7.98,4.35-15.98,6.52-23.97c2.24-8.26,4.45-16.52,6.71-24.76
			c0.27-0.98,0.24-2.3,1.84-2.27c3.46,0.06,6.92,0.02,10.37,0.17c2.47,0.11,4,1.57,4.68,3.91c0.36,1.22,0.59,2.48,0.98,3.69
			c0.88,2.75,3.28,4.26,5.85,3.75c2.64-0.52,4.18-2.74,3.79-5.74c-0.54-4.14-2.04-7.93-4.72-11.17c-2.53-3.05-5.79-4.62-9.78-4.62
			C396.4,318.97,393.94,318.97,391.49,318.97z"/>
		<path d="M432.97,383.5c-5.72-0.16-11.78-1.78-16.62-6.52c-4.12-4.04-5.96-8.84-4.49-14.64c3.33-13.14,6.61-26.3,9.97-39.44
			c0.9-3.53,2.43-4.69,6.02-4.71c6.56-0.04,13.11-0.05,19.67,0.02c1.81,0.02,3.65,0.21,5.41,0.6c9.77,2.19,15.46,10.37,13.38,20.16
			c-1.98,9.33-4.36,18.62-7.23,27.71C455.75,377.25,445.8,383.53,432.97,383.5z M440.46,328.2
			C440.46,328.2,440.46,328.19,440.46,328.2c-2.64-0.01-5.28,0.03-7.92-0.02c-1.27-0.03-1.93,0.35-2.26,1.71
			c-2.8,11.21-5.75,22.38-8.51,33.59c-0.99,4.04,0.05,5.96,3.71,8.05c3.21,1.84,6.71,2.18,10.31,1.93
			c7.19-0.51,12.4-4.46,14.36-11.36c2.21-7.78,4.24-15.62,6.1-23.49c1.55-6.56-1.37-10.15-8.14-10.38
			C445.56,328.12,443.01,328.2,440.46,328.2z"/>
		<path d="M234.41,362.36c3.31-5.32,6.64-10.63,9.93-15.96c5.17-8.36,10.31-16.74,15.48-25.1c1.53-2.47,4.1-3.31,6.55-2.21
			c2.86,1.29,3.68,4.32,1.84,7.37c-4.1,6.78-8.21,13.55-12.42,20.25c-10.79,17.19-21.63,34.36-32.48,51.51
			c-2.5,3.96-5.59,7.42-9.56,9.99c-3.29,2.12-6.83,3.39-10.82,3.19c-3.37-0.16-5.68-2.18-5.7-5.03c-0.02-2.98,2.1-4.94,5.62-4.9
			c4.17,0.04,7.14-2.21,9.45-5.2c3-3.88,5.38-8.25,8.43-12.08c3.71-4.66,4.44-9.56,3.77-15.42c-1.67-14.64-2.69-29.36-3.97-44.05
			c-0.34-3.95,1.79-6.26,5.49-6c2.68,0.19,4.13,1.49,4.4,4.27c0.59,6.07,1.08,12.15,1.62,18.22c0.31,3.54,0.64,7.07,0.95,10.61
			c0.3,3.43,0.58,6.86,0.87,10.3C234.05,362.2,234.23,362.28,234.41,362.36z"/>
		<path d="M293.62,318.8c3.83,0,7.65-0.03,11.48,0.01c8.85,0.07,14.78,5.53,14.83,14.37c0.03,4.58-0.68,9.28-1.82,13.73
			c-2.77,10.75-5.99,21.39-9.03,32.07c-0.15,0.53-0.3,1.05-0.5,1.56c-1.08,2.75-3.56,4.07-6.07,3.25c-2.56-0.84-3.91-3.32-3.16-6.12
			c1.07-3.95,2.32-7.86,3.39-11.81c2.21-8.17,4.45-16.34,6.47-24.57c0.62-2.53,0.85-5.23,0.77-7.83c-0.1-3.55-1.44-4.61-5.01-4.62
			c-6.01-0.02-12.03,0.09-18.04-0.06c-2.1-0.05-3.01,0.58-3.55,2.63c-3.75,14.17-7.63,28.31-11.46,42.46
			c-0.6,2.2-1.12,4.42-1.8,6.59c-0.86,2.76-3.31,4.13-5.94,3.46c-2.58-0.66-4.2-3.08-3.5-5.89c1.83-7.42,3.81-14.81,5.79-22.2
			c2.85-10.64,5.77-21.26,8.64-31.9c1.15-4.27,2.2-5.09,6.74-5.11C285.78,318.78,289.7,318.79,293.62,318.8z"/>
		<path d="M192.59,317.18c5.03-0.01,10.38,0.92,15.42,3.28c1.56,0.73,3.07,1.61,4.45,2.63c2.75,2.03,3.22,4.97,1.33,7.34
			c-1.82,2.27-4.74,2.59-7.27,0.47c-3.28-2.74-7.06-4.26-11.2-4.56c-3.23-0.23-6.57-0.14-9.76,0.42c-6.77,1.18-7.89,9.58-3.79,12.89
			c3.11,2.51,6.3,4.93,9.44,7.4c3.58,2.8,7.42,5.34,10.68,8.47c8.68,8.36,6.37,20.86-4.68,25.69c-2.55,1.11-5.38,1.89-8.14,2.13
			c-9.03,0.79-17.81-0.59-26.22-3.97c-3.06-1.23-4.22-3.99-3.07-6.59c1.13-2.58,4.01-3.62,6.93-2.52c0.09,0.03,0.17,0.08,0.25,0.1
			c4.53,1.35,9.01,2.86,13.59,3.98c3.59,0.88,7.27,0.6,10.74-0.82c1.25-0.51,2.5-1.17,3.52-2.03c2.85-2.42,3.15-6.21,0.61-8.96
			c-1.4-1.52-3.14-2.76-4.83-3.98c-3.99-2.87-8.12-5.56-12.03-8.52c-1.94-1.47-3.71-3.25-5.27-5.13c-5.02-6.06-5.1-13.32-0.27-19.56
			C177.84,319.1,184.52,317.07,192.59,317.18z"/>
		<path d="M495.82,317.18c6.76,0.01,12.52,1.1,17.9,3.88c1.21,0.62,2.37,1.37,3.45,2.2c2.46,1.91,2.88,4.95,1.07,7.2
			c-1.71,2.13-4.75,2.5-7.08,0.6c-6.15-5.02-13.19-5.8-20.64-4.44c-4.64,0.85-6.84,3.66-6.45,8.3c0.13,1.57,0.97,3.39,2.08,4.52
			c2.15,2.19,4.67,4.05,7.12,5.92c3.9,2.99,8.03,5.7,11.78,8.85c4.11,3.45,6.93,7.73,6.53,13.48c-0.5,7.12-5.28,12.53-13.01,14.72
			c-6.3,1.79-12.67,1.5-18.95,0.23c-4.43-0.89-8.81-2.21-13.07-3.72c-2.39-0.85-3.22-3.46-2.47-5.68c0.78-2.3,2.82-3.65,5.29-3.42
			c0.63,0.06,1.24,0.27,1.85,0.45c4.52,1.35,9.01,2.86,13.58,4.02c3.68,0.93,7.44,0.7,11-0.78c1.24-0.51,2.49-1.19,3.51-2.05
			c2.77-2.36,3.15-6.03,0.74-8.73c-1.49-1.67-3.39-3.02-5.23-4.34c-3.18-2.29-6.49-4.39-9.66-6.68c-1.77-1.28-3.45-2.7-5.03-4.2
			c-9.67-9.19-7.41-22.51,4.75-28.12C488.57,317.69,492.49,317.01,495.82,317.18z"/>
		<path d="M350.15,318.19c3.55,0,7.11-0.04,10.66,0.01c3.59,0.05,5.56,1.84,5.58,4.96c0.01,3.07-2.05,4.99-5.56,5.02
			c-5.38,0.04-10.75,0.06-16.13-0.02c-1.68-0.03-2.61,0.35-3.1,2.16c-2.82,10.46-5.84,20.87-8.62,31.35
			c-0.62,2.34-0.83,4.86-0.75,7.29c0.12,4,1.88,5.56,5.84,5.62c4.19,0.07,8.38,0.04,12.57,0.09c0.91,0.01,1.84,0.01,2.71,0.23
			c2.2,0.55,3.75,2.73,3.63,4.88c-0.12,2.09-1.72,4.32-3.85,4.36c-6.63,0.12-13.34,0.55-19.86-0.33
			c-6.63-0.89-10.89-7.09-11.04-14.72c-0.07-3.5,0.36-7.13,1.26-10.52c3.21-12.15,6.69-24.23,10.1-36.33
			c0.83-2.94,2.23-3.98,5.36-4.03C342.67,318.15,346.41,318.19,350.15,318.19z"/>
		<path d="M391.49,318.97c2.46,0,4.92,0,7.37,0c3.98,0,7.25,1.57,9.78,4.62c2.69,3.24,4.18,7.03,4.72,11.17
			c0.39,2.99-1.15,5.21-3.79,5.74c-2.57,0.51-4.96-1-5.85-3.75c-0.39-1.21-0.62-2.47-0.98-3.69c-0.68-2.34-2.22-3.8-4.68-3.91
			c-3.45-0.15-6.91-0.11-10.37-0.17c-1.6-0.03-1.57,1.29-1.84,2.27c-2.26,8.25-4.48,16.51-6.71,24.76
			c-2.17,7.99-4.32,15.99-6.52,23.97c-0.74,2.67-2.17,3.87-4.51,4.03c-3.59,0.25-6.04-2.83-5.06-6.53
			c1.98-7.47,4.04-14.93,6.06-22.39c2.77-10.28,5.53-20.56,8.31-30.83c1.15-4.26,2.5-5.27,6.97-5.28
			C386.75,318.96,389.12,318.97,391.49,318.97z"/>
		<path class="st2" d="M440.46,328.2c2.55,0,5.1-0.07,7.64,0.01c6.77,0.23,9.69,3.82,8.14,10.38c-1.86,7.87-3.89,15.71-6.1,23.49
			c-1.96,6.9-7.17,10.85-14.36,11.36c-3.59,0.25-7.1-0.09-10.31-1.93c-3.66-2.1-4.7-4.02-3.71-8.05
			c2.76-11.22,5.71-22.38,8.51-33.59c0.34-1.35,0.99-1.73,2.26-1.71C435.18,328.23,437.82,328.19,440.46,328.2
			C440.46,328.19,440.46,328.2,440.46,328.2z"/>
	</g>
	<rect x="149.39" y="290.51" class="st1" width="398.24" height="128.1"/>
</g>
</svg>
